<?xml version="1.0" standalone="no"?><!DOCTYPE svg PUBLIC "-//W3C//DTD SVG 1.1//EN" "http://www.w3.org/Graphics/SVG/1.1/DTD/svg11.dtd"><svg class="icon" width="200px" height="200.00px" viewBox="0 0 1024 1024" version="1.1" xmlns="http://www.w3.org/2000/svg"><path fill="#a6adb4" d="M948.554539 168.007631a32.559618 32.559618 0 0 0 3.255962-14.163434V32.559618a32.559618 32.559618 0 0 0-31.745628-32.559618H104.609229a32.559618 32.559618 0 0 0-32.559619 32.559618v121.284579a32.559618 32.559618 0 0 0 3.41876 14.163434l54.862957 112.65628v462.346582L75.305572 855.666773a32.559618 32.559618 0 0 0-3.255962 14.163434v121.610175a32.559618 32.559618 0 0 0 32.559619 32.559618h815.455644a32.559618 32.559618 0 0 0 31.745628-32.559618v-121.610175a32.559618 32.559618 0 0 0-3.255962-14.163434l-55.025755-112.65628v-462.346582z m-60.235294 734.382194v56.816534H135.540866v-56.816534z m-54.862957-643.703656a33.536407 33.536407 0 0 0-3.255962 14.326232v477.649602a34.187599 34.187599 0 0 0 3.255962 14.48903L869.760262 837.758983H155.076637L190.566622 765.151033a33.536407 33.536407 0 0 0 3.255961-14.326232V273.012401a33.536407 33.536407 0 0 0-3.255961-14.326232L155.076637 186.078219H869.760262zM135.540866 121.447377V65.119237h752.778379v56.32814zM511.604459 240.778378a268.291256 268.291256 0 0 0-264.546899 271.058824 276.756757 276.756757 0 0 0 32.559618 130.238474 32.559618 32.559618 0 0 0 2.279173 4.069952 261.779332 261.779332 0 0 0 461.044197 0 35.489984 35.489984 0 0 0 2.279174-4.069952 276.756757 276.756757 0 0 0 32.559618-130.238474A268.454054 268.454054 0 0 0 511.604459 240.778378z m-116.237837 333.247695a54.048967 54.048967 0 0 1 20.675357 4.232751 31.094436 31.094436 0 0 0 26.047695-1.139587 32.559618 32.559618 0 0 0 16.279809-20.349762 55.025755 55.025755 0 0 1 106.958347 0 32.559618 32.559618 0 0 0 16.279809 20.675358 30.931638 30.931638 0 0 0 26.047695 0.976789 54.862957 54.862957 0 0 1 75.375516 42.164706 198.776471 198.776471 0 0 1-342.852782 0 56.002544 56.002544 0 0 1 55.188554-46.560255zM511.604459 449.811129a118.354213 118.354213 0 0 0-102.562798 60.56089c-4.883943 0-9.930684 0-14.326232-0.976788a117.540223 117.540223 0 0 0-82.213036 33.862003 202.032432 202.032432 0 1 1 400.971701-31.420032 226.614944 226.614944 0 0 1-2.279174 31.420032 117.865819 117.865819 0 0 0-81.399046-33.862003 104.190779 104.190779 0 0 0-14.326232 0.976788A118.679809 118.679809 0 0 0 511.604459 449.811129z" /></svg>