<?xml version="1.0" standalone="no"?><!DOCTYPE svg PUBLIC "-//W3C//DTD SVG 1.1//EN" "http://www.w3.org/Graphics/SVG/1.1/DTD/svg11.dtd"><svg class="icon" width="200px" height="187.03px" viewBox="0 0 1095 1024" version="1.1" xmlns="http://www.w3.org/2000/svg"><path fill="#a6adb4" d="M512.066205 1024a511.990685 511.990685 0 1 1 376.028714-859.433252 28.443927 28.443927 0 0 1-41.812573 38.683741A455.102831 455.102831 0 1 0 512.066205 967.112146a28.443927 28.443927 0 0 1 0 56.887854zM1009.834926 995.556073H696.95173a85.331781 85.331781 0 0 1-85.331781-85.331781V384.011644a85.331781 85.331781 0 0 1 85.331781-85.331781h312.883196a85.331781 85.331781 0 0 1 85.331781 85.331781v526.212648a85.331781 85.331781 0 0 1-85.331781 85.331781zM696.95173 355.567717a28.443927 28.443927 0 0 0-28.443927 28.443927v526.212648a28.443927 28.443927 0 0 0 28.443927 28.443927h312.883196a28.443927 28.443927 0 0 0 28.443927-28.443927V384.011644a28.443927 28.443927 0 0 0-28.443927-28.443927zM952.947072 512.009315H739.61762a28.443927 28.443927 0 0 1 0-56.887853h213.329452a28.443927 28.443927 0 0 1 0 56.887853zM881.837255 640.006987H739.61762a28.443927 28.443927 0 0 1 0-56.887854h142.219635a28.443927 28.443927 0 0 1 0 56.887854zM483.622278 597.341096H256.070862a28.443927 28.443927 0 0 1 0-56.887854h227.551416a28.443927 28.443927 0 0 0 28.443927-28.443927V327.12379a28.443927 28.443927 0 0 1 56.887853 0v184.885525a85.331781 85.331781 0 0 1-85.33178 85.331781z" /></svg>