<?xml version="1.0" standalone="no"?><!DOCTYPE svg PUBLIC "-//W3C//DTD SVG 1.1//EN" "http://www.w3.org/Graphics/SVG/1.1/DTD/svg11.dtd"><svg class="icon" width="200px" height="200.00px" viewBox="0 0 1024 1024" version="1.1" xmlns="http://www.w3.org/2000/svg"><path fill="#a6adb4" d="M477.184 242.688l-21.504-21.504c-6.144-6.144-15.36-6.144-21.504 0L299.008 356.352l-54.272-54.272c-6.144-6.144-15.36-6.144-21.504 0l-21.504 21.504c-6.144 6.144-6.144 15.36 0 21.504l75.776 75.776c6.144 6.144 14.336 9.216 21.504 9.216 8.192 0 15.36-3.072 21.504-9.216l156.672-156.672c5.12-5.12 5.12-15.36 0-21.504zM788.48 389.12H522.24c-11.264 0-20.48-9.216-20.48-20.48v-40.96c0-11.264 9.216-20.48 20.48-20.48h266.24c11.264 0 20.48 9.216 20.48 20.48v40.96c0 11.264-9.216 20.48-20.48 20.48z m0 184.32H460.8c-11.264 0-20.48-9.216-20.48-20.48v-40.96c0-11.264 9.216-20.48 20.48-20.48h327.68c11.264 0 20.48 9.216 20.48 20.48v40.96c0 11.264-9.216 20.48-20.48 20.48z m-450.56 0h-40.96c-11.264 0-20.48-9.216-20.48-20.48v-40.96c0-11.264 9.216-20.48 20.48-20.48h40.96c11.264 0 20.48 9.216 20.48 20.48v40.96c0 11.264-9.216 20.48-20.48 20.48z m0 184.32h-40.96c-11.264 0-20.48-9.216-20.48-20.48v-40.96c0-11.264 9.216-20.48 20.48-20.48h40.96c11.264 0 20.48 9.216 20.48 20.48v40.96c0 11.264-9.216 20.48-20.48 20.48z m450.56 0H460.8c-11.264 0-20.48-9.216-20.48-20.48v-40.96c0-11.264 9.216-20.48 20.48-20.48h327.68c11.264 0 20.48 9.216 20.48 20.48v40.96c0 11.264-9.216 20.48-20.48 20.48z" /></svg>