<?xml version="1.0" standalone="no"?><!DOCTYPE svg PUBLIC "-//W3C//DTD SVG 1.1//EN" "http://www.w3.org/Graphics/SVG/1.1/DTD/svg11.dtd"><svg class="icon" width="200px" height="200.00px" viewBox="0 0 1024 1024" version="1.1" xmlns="http://www.w3.org/2000/svg"><path fill="#a6adb4" d="M650.077775 823.12704c0-10.741645-7.736195-19.447934-17.300015-19.447934L390.418944 803.679106c-9.56382 0-17.300015 8.705266-17.300015 19.447934l0 77.864392L200.023616 900.991432l0 58.449203L823.172065 959.440635l0-58.449203L650.077775 900.991432 650.077775 823.12704 650.077775 823.12704 650.077775 823.12704 650.077775 823.12704 650.077775 823.12704zM900.891148 113.734344 122.301464 113.734344c-32.230052 0-58.376549 26.108634-58.376549 58.376549l0 545.038464c0 32.200376 26.108634 58.381665 58.376549 58.381665l778.589684 0c32.234145 0 58.415434-26.145473 58.415434-58.381665L959.306582 172.110893C959.306582 139.880841 933.197948 113.734344 900.891148 113.734344L900.891148 113.734344 900.891148 113.734344 900.891148 113.734344 900.891148 113.734344zM900.891148 697.629791c0 10.746762-8.701173 19.447934-19.447934 19.447934l-739.655953 0c-10.780531 0-19.447934-8.701173-19.447934-19.447934L122.339326 191.558827c0-10.741645 8.667404-19.447934 19.447934-19.447934l739.655953 0c10.746762 0 19.447934 8.667404 19.447934 19.447934L900.891148 697.629791 900.891148 697.629791 900.891148 697.629791 900.891148 697.629791 900.891148 697.629791zM348.100116 659.357116l54.843072 0 0-117.782543-54.843072 0L348.100116 659.357116 348.100116 659.357116 348.100116 659.357116zM439.517175 659.357116l54.845119 0L494.362294 486.384599l-54.845119 0L439.517175 659.357116 439.517175 659.357116 439.517175 659.357116zM541.90817 659.357116l54.843072 0L596.751243 442.205401l-54.843072 0L541.90817 659.357116 541.90817 659.357116 541.90817 659.357116zM640.622426 659.357116l54.843072 0L695.465498 379.681392l-54.843072 0L640.622426 659.357116 640.622426 659.357116 640.622426 659.357116zM689.423899 328.150762l21.617343-123.698277L588.108399 232.18306l37.920658 35.938514L519.16212 379.954615l-52.931536-47.78226L313.127603 490.168786l22.381753 21.908986-0.073678-0.036839 132.214231-136.415926 53.096289 47.910173 128.010489-133.88836L689.423899 328.150762 689.423899 328.150762 689.423899 328.150762zM689.423899 328.150762" /></svg>