<svg t="1628824182127" class="icon" viewBox="0 0 1024 1024" version="1.1"
    xmlns="http://www.w3.org/2000/svg" p-id="952" id="mx_n_1628824182128" data-spm-anchor-id="a313x.7781069.0.i2" width="200" height="200">
    <path d="M249.52827232 836.969153l99.025075-99.025074V452.315935c0-1.646498 0.705642-3.292995 1.881711-4.469065l151.085763-151.007358c-11.603888-10.976651-56.608158-49.159716-123.408921-52.844735L217.93119832 404.175479a31.502989 31.502989 0 0 0-9.251749 22.345326v393.512944c-0.078405 21.40447 25.716726 32.067502 40.848823 16.935404z" fill="#d4237a" p-id="953" data-spm-anchor-id="a313x.7781069.0.i0" class=""></path>
    <path d="M501.52082132 296.839512l1.646498-1.646498 158.926227 158.926228v279.669391c0 6.507586 2.587353 12.779958 7.213228 17.405832l89.538112 88.83247c16.229763 16.072953 43.8282 4.625874 43.8282-18.268284V392.571591l-261.871535-261.871535c-13.642409-13.642409-35.752521-13.642409-49.39493 0L378.11190032 243.994777c66.800763 3.685019 111.726628 41.789679 123.408921 52.844735z" fill="#1296db" p-id="954"></path>
    <path d="M531.54117832 461.49712l-2.000103 119.490256h76.389652a22.18146 21.330769 90 0 1 17.677112 34.603893L505.99772732 796.580566a13.86351 13.331143 90 0 1-24.369734-8.290508l4.425943-118.991603H406.83779632a22.18146 21.330769 90 0 1-17.664568-34.631334l118.010761-181.197853a13.86351 13.331143 90 0 1 24.357189 8.027068z" fill="#f14207" p-id="955" data-spm-anchor-id="a313x.7781069.0.i3" class="selected"></path>
</svg>